# AST/ASF file generated using VICON BodyLanguage
# -----------------------------------------------
:version 1.10
:name VICON
:units
  mass 1.0
  length 0.45
  angle deg
:documentation
   .ast/.asf automatically generated from VICON data using
   VICON BodyBuilder and BodyLanguage model FoxedUp or BRILLIANT.MOD
:root
   order TX TY TZ RX RY RZ
   axis XYZ
   position 0 0 0  
   orientation 0 0 0 
:bonedata
  begin
     id 1 
     name lhipjoint
     direction 0.63403 -0.759788 0.143974 
     length 2.51904 
     axis 0 0 0  XYZ
  end
  begin
     id 2 
     name lfemur
     direction 0.34202 -0.939693 0  
     length 7.42313  
     axis 0 0 20  XYZ
    dof rx ry rz
    limits (-160.0 20.0)
           (-70.0 70.0)
           (-60.0 70.0)
  end
  begin
     id 3 
     name ltibia
     direction 0.34202 -0.939693 0   
     length 8.10141   
     axis 0 0 20   XYZ
    dof rx
    limits (-10.0 170.0)
  end
  begin
     id 4 
     name lfoot
     direction 0.0927455 -0.254816 0.962532   
     length 2.14078   
     axis -90 7.62852e-016 20   XYZ
    dof rx rz
    limits (-45.0 90.0)
           (-70.0 20.0)
  end
  begin
     id 5 
     name ltoes
     direction 1.53556e-011 -4.21949e-011 1   
     length 1.07182   
     axis -90 7.62852e-016 20   XYZ
    dof rx
    limits (-90.0 20.0)
  end
  begin
     id 6 
     name rhipjoint
     direction -0.659892 -0.738223 0.139888   
     length 2.59263  
     axis 0 0 0  XYZ 
  end
  begin
     id 7 
     name rfemur
     direction -0.34202 -0.939693 0   
     length 7.58575   
     axis 0 0 -20   XYZ
    dof rx ry rz
    limits (-160.0 20.0)
           (-70.0 70.0)
           (-70.0 60.0)
  end
  begin
     id 8 
     name rtibia
     direction -0.34202 -0.939693 0   
     length 8.19358   
     axis 0 0 -20   XYZ
    dof rx
    limits (-10.0 170.0)
 end
 begin
     id 9 
     name rfoot
     direction -0.0856543 -0.235333 0.968133   
     length 2.13415  
     axis -90 -7.62852e-016 -20   XYZ
    dof rx rz
    limits (-45.0 90.0)
           (-20.0 70.0)
  end
  begin
     id 10 
     name rtoes
     direction -1.53551e-011 -4.21811e-011 1   
     length 1.07055   
     axis -90 -7.62852e-016 -20   XYZ
    dof rx
    limits (-90.0 20.0)
  end
  begin
     id 11 
     name lowerback
     direction 0.025219 0.998394 -0.0507326   
     length 1.91844   
     axis 0 0 0   XYZ
    dof rx ry rz
    limits (-20.0 45.0)
           (-30.0 30.0)
           (-30.0 30.0)
  end
  begin
     id 12 
     name upperback
     direction 0.0213103 0.99967 -0.0143101   
     length 1.92246   
     axis 0 0 0   XYZ
    dof rx ry rz
    limits (-20.0 45.0)
           (-30.0 30.0)
           (-30.0 30.0)
  end
  begin
     id 13 
     name thorax
     direction 0.00920974 0.99991 0.00971518   
     length 1.92239   
     axis 0 0 0   XYZ
    dof rx ry rz
    limits (-20.0 45.0)
           (-30.0 30.0)
           (-30.0 30.0)
  end
  begin
     id 14 
     name lowerneck
     direction 0.0598257 0.997249 0.0437612   
     length 3.13679   
     axis 0 0 0   XYZ
    dof rx ry rz
    limits (-20.0 45.0)
           (-30.0 30.0)
           (-30.0 30.0)
  end
  begin
     id 15 
     name upperneck
     direction -0.035342 0.999338 0.00863891   
     length 3.16283   
     axis 0 0 0   XYZ
    dof rx ry rz
    limits (-20.0 45.0)
           (-30.0 30.0)
           (-30.0 30.0)
  end
  begin
     id 16
     name head
     direction 0.37144 0.811566 0.450991  
     length 1.2838  
     axis 0 0 0   XYZ
    dof rx ry rz
    limits (-20.0 45.0)
           (-30.0 30.0)
           (-30.0 30.0)
  end
  begin
     id 17 
     name lclavicle
     direction 0.961094 0.274654 -0.0293862  
     length 3.63466  
     axis 0 0 0   XYZ
    dof ry rz
    limits (-20.0 10.0)
           (0.0 20.0)
  end
  begin
     id 18 
     name lhumerus
     direction 1 -4.48963e-011 1.10303e-027   
     length 5.12842   
     axis 180 -30 -90   XYZ
    dof rx ry rz
    limits (-60.0 90.0)
           (-90.0 90.0)
           (-90.0 90.0)
  end
  begin
     id 19
     name lradius
     direction 1 -4.48968e-011 4.13199e-027   
     length 3.47396   
     axis 180 -30 -90   XYZ
    dof rx
    limits (-10.0 170.0)
  end
  begin
     id 20
     name lwrist
     direction 1 -4.48948e-011 9.12708e-027   
     length 1.73698   
     axis -6.84618e-015 90 90   XYZ
    dof ry
    limits (-180.0 0.0)
 end
  begin
     id 21 
     name lhand
     direction 1 -4.49057e-011 1.82749e-026   
     length 0.728607   
     axis -1.16502e-014 90 90   XYZ
    dof rx rz
    limits (-90.0 90.0)
           (-45.0 45.0)
  end
  begin
     id 22 
     name lfingers
     direction 1 -4.48912e-011 3.64949e-026   
     length 0.587422   
     axis -2.33008e-014 90 90   XYZ
    dof rx
    limits (0.0 90.0)
  end
  begin
     id 23
     name lthumb
     direction 0.707107 -6.34995e-011 0.707107   
     length 0.843424   
     axis -90 45 5.69224e-014   XYZ
    dof rx rz
    limits (-45.0 45.0)
           (-45.0 45.0)
  end
  begin
     id 24 
     name rclavicle
     direction -0.90514 0.421881 -0.0523369   
     length 3.57139  
     axis 0 0 0   XYZ 
    dof ry rz
    limits (-10.0 20.0)
           (-20.0 0.0)
  end
  begin
     id 25 
     name rhumerus
     direction -1 -4.48954e-011 -1.76662e-027  
     length 5.48477   
     axis 180 30 90   XYZ
    dof rx ry rz
    limits (-90.0 60.0)
           (-90.0 90.0)
           (-90.0 90.0)
  end
  begin
     id 26 
     name rradius
     direction -1 -4.48982e-011 1.26841e-027   
     length 3.47856   
     axis 180 30 90   XYZ
    dof rx
    limits (-10.0 170.0)
  end
  begin
     id 27 
     name rwrist
     direction -1 -4.49037e-011 9.13554e-027   
     length 1.73928   
     axis -6.84618e-015 -90 -90   XYZ
    dof ry
    limits (-180.0 0.0)
  end
  begin
     id 28
     name rhand
     direction -1 -4.48871e-011 1.82397e-026   
     length 0.709974   
     axis -1.16502e-014 -90 -90   XYZ
    dof rx rz
    limits (-90.0 90.0)
           (-45.0 45.0)
  end
  begin
     id 29
     name rfingers
     direction -1 -4.48994e-011 3.65258e-026   
     length 0.572399   
     axis -2.33008e-014 -90 -90   XYZ
    dof rx
    limits (0.0 90.0)
  end
  begin
     id 30
     name rthumb
     direction -0.707107 -6.34861e-011 0.707107   
     length 0.821855   
     axis -90 -45 -5.69224e-014   XYZ
    dof rx rz
    limits (-45.0 45.0)
           (-45.0 45.0)
  end
:hierarchy
  begin
    root lhipjoint rhipjoint lowerback
    lhipjoint lfemur
    lfemur ltibia
    ltibia lfoot
    lfoot ltoes
    rhipjoint rfemur
    rfemur rtibia
    rtibia rfoot
    rfoot rtoes
    lowerback upperback
    upperback thorax
    thorax lowerneck lclavicle rclavicle
    lowerneck upperneck
    upperneck head
    lclavicle lhumerus
    lhumerus lradius
    lradius lwrist
    lwrist lhand lthumb
    lhand lfingers
    rclavicle rhumerus
    rhumerus rradius
    rradius rwrist
    rwrist rhand rthumb
    rhand rfingers
  end

#!OML:ASF F:\VICON\USERDATA\INSTALL\Justin1\Justin1.ASF
:FULLY-SPECIFIED
:DEGREES
887
root 0.223377 18.1913 -4.09189 2.87038 8.65046 -4.20678
lowerback 4.22154 -0.576929 1.2665
upperback -1.30549 -0.554126 3.91993
thorax -3.69188 -0.255894 3.38437
lowerneck -16.4748 -1.47831 -4.18551
upperneck 18.9795 0.604038 -6.9702
head 8.70976 -0.762647 -1.59861
rclavicle 1.16289e-014 -1.90833e-014
rhumerus -49.0442 -38.4159 -55.2895
rradius 71.036
rwrist -73.5299
rhand -44.093 2.7158
rfingers 7.12502
rthumb -16.9107 -26.568
lclavicle 1.16289e-014 -1.90833e-014
lhumerus -34.9546 0.31958 92.6729
lradius 37.6912
lwrist -21.4641
lhand -1.41739 23.3884
lfingers 7.12502
lthumb 24.2321 51.8772
rfemur -15.3351 4.17872 28.1963
rtibia 32.6949
rfoot -18.5448 -14.991
rtoes 26.5981
lfemur -14.5212 -11.0077 -16.7981
ltibia 31.005
lfoot -17.2467 9.26013
ltoes 2.00743
888
root 0.225549 18.1906 -4.08917 2.85642 8.74537 -4.17526
lowerback 4.10782 -0.646696 1.32811
upperback -1.22094 -0.652564 3.89441
thorax -3.536 -0.307738 3.32649
lowerneck -16.5222 -1.43 -4.08223
upperneck 18.9669 0.64085 -6.94714
head 8.71357 -0.735879 -1.60348
rclavicle 2.31833e-014 -1.35174e-014
rhumerus -48.8797 -41.3044 -53.6359
rradius 70.394
rwrist -70.9603
rhand -43.2508 2.55943
rfingers 7.12502
rthumb -16.0999 -26.7918
lclavicle 2.31833e-014 -1.35174e-014
lhumerus -34.9025 0.34639 92.5482
lradius 37.9194
lwrist -21.2313
lhand -1.51096 23.278
lfingers 7.12502
lthumb 24.1424 51.7788
rfemur -15.2936 4.11198 28.1641
rtibia 32.6948
rfoot -18.5475 -15.0166
rtoes 26.8441
lfemur -14.5014 -11.0463 -16.829
ltibia 30.9864
lfoot -17.2417 9.15947
ltoes 1.85275
889
root 0.228686 18.1919 -4.08792 2.86723 8.87349 -4.13471
lowerback 4.07244 -0.726116 1.35833
upperback -1.22867 -0.757915 3.89754
thorax -3.51936 -0.360909 3.31955
lowerneck -16.3024 -1.35193 -4.03453
upperneck 18.8155 0.702672 -6.91927
head 8.62228 -0.690804 -1.58906
rclavicle 1.03617e-014 -1.11319e-014
rhumerus -49.4563 -40.5121 -53.2158
rradius 71.9665
rwrist -71.5038
rhand -43.5501 3.29953
rfingers 7.12502
rthumb -16.3881 -26.0282
lclavicle 1.03617e-014 -1.11319e-014
lhumerus -34.9937 0.344922 92.5202
lradius 38.1008
lwrist -20.9099
lhand -1.97805 22.9854
lfingers 7.12502
lthumb 23.6944 51.5449
rfemur -15.2945 4.06524 28.1216
rtibia 32.6936
rfoot -18.5577 -15.1242
rtoes 26.8118
lfemur -14.5132 -11.095 -16.8716
ltibia 30.9619
lfoot -17.1882 9.12287
ltoes 1.46669
890
root 0.23288 18.1918 -4.08614 2.86999 8.98501 -4.17309
lowerback 4.12926 -0.800498 1.4282
upperback -1.30917 -0.845206 3.96951
thorax -3.63096 -0.404226 3.36412
lowerneck -16.075 -1.28499 -3.96488
upperneck 18.6751 0.776709 -7.04106
head 8.53554 -0.654375 -1.62793
rclavicle -2.37548e-014 1.90833e-014
rhumerus -49.8314 -40.8913 -52.077
rradius 72.7989
rwrist -71.1167
rhand -41.5856 2.10195
rfingers 7.12502
rthumb -14.4959 -27.3717
lclavicle -2.37548e-014 1.90833e-014
lhumerus -35.1784 0.547867 92.5131
lradius 38.2142
lwrist -21.0839
lhand -2.16011 23.0384
lfingers 7.12502
lthumb 23.5198 51.6204
rfemur -15.3035 4.05747 28.1606
rtibia 32.7037
rfoot -18.5682 -15.2637
rtoes 26.3866
lfemur -14.5214 -11.1368 -16.8271
ltibia 30.9338
lfoot -17.1878 9.05899
ltoes 1.35311
891
root 0.237254 18.1926 -4.08408 2.88356 9.04177 -4.17395
lowerback 4.08577 -0.858118 1.50538
upperback -1.30975 -0.91898 3.98567
thorax -3.60452 -0.442625 3.34173
lowerneck -15.8986 -1.26801 -3.89364
upperneck 18.4152 0.758601 -7.08497
head 8.41485 -0.649645 -1.65034
rclavicle 2.60905e-015 -7.95139e-016
rhumerus -49.8752 -41.4042 -51.1647
rradius 73.6347
rwrist -70.796
rhand -40.0892 1.20418
rfingers 7.12502
rthumb -13.0537 -28.3673
lclavicle 2.60905e-015 -7.95139e-016
lhumerus -35.2128 0.760237 92.4118
lradius 38.3487
lwrist -21.448
lhand -1.62903 23.7136
lfingers 7.12502
lthumb 24.0292 52.2294
rfemur -15.3228 4.0331 28.1479
rtibia 32.7271
rfoot -18.6111 -15.2659
rtoes 26.5573
lfemur -14.5163 -11.1712 -16.832
ltibia 30.9014
lfoot -17.1897 8.99819
ltoes 1.57059
892
root 0.240419 18.193 -4.08307 2.95069 9.08035 -4.08783
lowerback 4.0193 -0.895387 1.48161
upperback -1.30458 -0.973587 3.97002
thorax -3.55885 -0.46974 3.34099
lowerneck -15.969 -1.2697 -3.95195
upperneck 18.4419 0.741808 -6.91775
head 8.4347 -0.646769 -1.58749
rclavicle 7.90169e-015 1.19271e-014
rhumerus -49.6161 -42.0523 -50.4315
rradius 74.4071
rwrist -70.2362
rhand -42.9449 3.79605
rfingers 7.12502
rthumb -15.8053 -25.5787
lclavicle 7.90169e-015 1.19271e-014
lhumerus -35.1936 0.85909 92.3394
lradius 38.4829
lwrist -21.3807
lhand -1.37957 23.9052
lfingers 7.12502
lthumb 24.2683 52.3892
rfemur -15.3988 4.05443 28.0391
rtibia 32.758
rfoot -18.6615 -15.289
rtoes 26.8282
lfemur -14.554 -11.2167 -16.9232
ltibia 30.8654
lfoot -17.1742 8.97344
ltoes 1.91136
893
root 0.244434 18.1934 -4.0831 3.02798 9.11867 -4.00299
lowerback 3.94954 -0.92994 1.46828
upperback -1.33341 -1.02337 3.93415
thorax -3.54729 -0.494662 3.31349
lowerneck -16.0619 -1.24903 -3.9121
upperneck 18.6645 0.74921 -6.76101
head 8.52507 -0.63387 -1.54462
rclavicle -2.95692e-015 -1.90833e-014
rhumerus -49.2795 -42.7814 -49.759
rradius 75.13
rwrist -69.1574
rhand -42.6409 4.59042
rfingers 7.12502
rthumb -15.5125 -24.8073
lclavicle -2.95692e-015 -1.90833e-014
lhumerus -35.2547 0.914875 92.2589
lradius 38.6429
lwrist -21.0008
lhand -1.42083 23.6819
lfingers 7.12502
lthumb 24.2288 52.1712
rfemur -15.4935 4.06006 27.9342
rtibia 32.7864
rfoot -18.6553 -15.3554
rtoes 26.5969
lfemur -14.6145 -11.2316 -17.0124
ltibia 30.8263
lfoot -17.1707 8.93518
ltoes 2.09945
894
root 0.248841 18.1928 -4.08092 3.04671 9.1381 -4.0067
lowerback 3.86887 -0.975539 1.50152
upperback -1.34715 -1.08406 3.96554
thorax -3.51327 -0.525368 3.32993
lowerneck -16.0647 -1.23627 -3.89224
upperneck 18.813 0.759662 -6.70182
head 8.57551 -0.626703 -1.52892
rclavicle 3.16068e-014 -5.56597e-015
rhumerus -48.6188 -43.4273 -49.2487
rradius 75.8025
rwrist -67.7376
rhand -42.5944 4.89404
rfingers 7.12502
rthumb -15.4677 -24.5071
lclavicle 3.16068e-014 -5.56597e-015
lhumerus -35.3085 1.1128 92.2019
lradius 38.735
lwrist -20.986
lhand -0.890944 24.139
lfingers 7.12502
lthumb 24.7367 52.5596
rfemur -15.5102 4.1043 27.9288
rtibia 32.8179
rfoot -18.6409 -15.42
rtoes 26.5102
lfemur -14.619 -11.1662 -17.0149
ltibia 30.7842
lfoot -17.1508 8.87848
ltoes 1.6447
895
root 0.252136 18.1944 -4.07736 3.04022 9.13014 -4.04433
lowerback 3.79455 -1.0196 1.54327
upperback -1.35561 -1.14173 4.01313
thorax -3.47738 -0.554593 3.35817
lowerneck -15.9147 -1.25294 -3.92157
upperneck 18.8022 0.719715 -6.64381
head 8.54335 -0.638537 -1.50745
rclavicle -2.03754e-015 -3.10104e-014
rhumerus -47.8927 -43.9089 -48.8381
rradius 76.6049
rwrist -66.1692
rhand -42.5391 5.02555
rfingers 7.12502
rthumb -15.4145 -24.3797
lclavicle -2.03754e-015 -3.10104e-014
lhumerus -35.3482 1.23673 92.1525
lradius 38.7981
lwrist -20.9846
lhand -0.108726 25.1792
lfingers 7.12502
lthumb 25.4862 53.4949
rfemur -15.5202 4.17997 27.9633
rtibia 32.8581
rfoot -18.628 -15.5161
rtoes 26.3828
lfemur -14.5935 -11.1251 -16.9773
ltibia 30.7476
lfoot -17.1508 8.77798
ltoes 1.82368
896
root 0.25759 18.1955 -4.07805 3.10014 9.02901 -4.0043
lowerback 3.7347 -1.01207 1.55235
upperback -1.38331 -1.13289 4.00243
thorax -3.47304 -0.55046 3.3404
lowerneck -15.7246 -1.30008 -3.81901
upperneck 18.7355 0.623712 -6.70669
head 8.48428 -0.677266 -1.55385
rclavicle 1.17283e-014 7.71285e-014
rhumerus -47.1791 -44.3666 -48.4348
rradius 77.4458
rwrist -64.5064
rhand -42.2371 5.41047
rfingers 7.12502
rthumb -15.1236 -24.017
lclavicle 1.17283e-014 7.71285e-014
lhumerus -35.3484 1.19972 92.1262
lradius 38.7203
lwrist -20.5871
lhand -1.08025 23.8419
lfingers 7.12502
lthumb 24.5553 52.2873
rfemur -15.629 4.25822 27.8831
rtibia 32.9213
rfoot -18.6646 -15.4503
rtoes 26.4687
lfemur -14.6136 -11.0196 -17.037
ltibia 30.7047
lfoot -17.1402 8.72571
ltoes 1.95202
897
root 0.264064 18.1959 -4.08085 3.22779 8.88226 -3.96741
lowerback 3.65743 -0.969163 1.5816
upperback -1.43944 -1.07557 3.98167
thorax -3.49106 -0.522531 3.29782
lowerneck -15.6595 -1.36533 -3.79711
upperneck 18.7887 0.512045 -6.63791
head 8.4875 -0.72189 -1.54751
rclavicle -2.73329e-015 3.81667e-014
rhumerus -46.3834 -44.9092 -48.0539
rradius 78.2053
rwrist -62.5558
rhand -41.9638 5.90184
rfingers 7.12502
rthumb -14.8603 -23.5452
lclavicle -2.73329e-015 3.81667e-014
lhumerus -35.3502 1.12244 92.0877
lradius 38.7209
lwrist -21.031
lhand -0.87066 23.9813
lfingers 7.12502
lthumb 24.7562 52.3992
rfemur -15.7663 4.28029 27.7972
rtibia 32.9657
rfoot -18.6412 -15.2048
rtoes 26.9615
lfemur -14.7228 -10.9322 -17.0932
ltibia 30.6781
lfoot -17.1295 8.78179
ltoes 1.54147
898
root 0.265117 18.1988 -4.08123 3.26663 8.94015 -3.91952
lowerback 3.65317 -0.985813 1.5106
upperback -1.47282 -1.09996 3.99011
thorax -3.52062 -0.532771 3.34883
lowerneck -15.6465 -1.41553 -3.85204
upperneck 18.8618 0.420063 -6.45207
head 8.5069 -0.752125 -1.48753
rclavicle 3.52843e-015 3.97569e-014
rhumerus -45.3776 -45.199 -47.8804
rradius 79.1301
rwrist -60.6683
rhand -42.066 6.57566
rfingers 7.12502
rthumb -14.9587 -22.8641
lclavicle 3.52843e-015 3.97569e-014
lhumerus -35.3901 1.04154 92.0977
lradius 38.8138
lwrist -21.2521
lhand -1.06506 23.8718
lfingers 7.12502
lthumb 24.5698 52.3152
rfemur -15.7304 4.31972 27.7477
rtibia 32.9792
rfoot -18.6587 -15.0549
rtoes 28.2184
lfemur -14.7568 -10.8855 -17.1385
ltibia 30.6715
lfoot -17.1438 8.72824
ltoes 1.28062
